<svg width="142" height="134" viewBox="0 0 142 134" fill="none" xmlns="http://www.w3.org/2000/svg">
<path d="M104.054 111.479C100.044 116.305 95.2636 120.433 89.9053 123.696C88.2348 124.694 86.5083 125.596 84.7343 126.396C72.489 131.899 58.5367 132.256 45.4879 129.092C18.0547 122.443 3.49527 98.2162 1.64901 71.3401C1.15262 64.0764 0.0420093 56.2307 2.9846 49.3171C5.92719 42.4034 11.8767 38.1145 18.6082 35.1326C23.497 32.9543 28.7751 31.4937 33.5711 30.3009C42.2508 28.1575 51.4059 29.1019 59.4652 32.9721C65.104 35.6504 69.1072 40.3 73.8639 44.214L75.3816 45.4531C80.1739 49.3098 85.2114 52.8515 90.4624 56.0557C98.4402 60.9232 106.607 65.512 111.703 73.6827C119.835 86.703 112.975 100.88 104.054 111.479Z" fill="white"/>
<path d="M75.3638 45.4531C74.8567 45.046 74.3508 44.6318 73.846 44.2104C69.1072 40.2822 65.0826 35.6397 59.4474 32.9721C51.3875 29.1037 42.2331 28.1593 33.5533 30.3009C22.1472 33.1328 7.99844 37.4931 2.95961 49.3206C0.0134523 56.2164 1.12764 64.0764 1.62759 71.3401C3.49528 98.2269 18.0547 122.443 45.4879 129.092C60.433 132.713 76.5029 131.72 89.9053 123.696C95.2636 120.433 100.044 116.305 104.054 111.479C112.982 100.88 119.835 86.703 111.71 73.6827C106.618 65.4942 98.4545 60.9232 90.4731 56.0557C85.2129 52.8517 80.1659 49.31 75.3638 45.4531V45.4531Z" stroke="#263238" stroke-miterlimit="10"/>
<path d="M33.8032 93.3916C31.5188 94.0827 29.3017 94.9792 27.1788 96.0699" stroke="#263238" stroke-linecap="round" stroke-linejoin="round"/>
<path d="M47.7877 90.7169C44.45 91.0054 41.1371 91.5317 37.8743 92.2917" stroke="#263238" stroke-linecap="round" stroke-linejoin="round"/>
<path d="M44.8773 90.0384C44.8773 90.0384 32.0034 82.5391 16.462 88.5528" stroke="#263238" stroke-linecap="round" stroke-linejoin="round"/>
<path opacity="0.1" d="M104.054 111.479C100.044 116.305 95.2636 120.433 89.9053 123.696C88.2348 124.694 86.5083 125.596 84.7344 126.396C83.3328 125.967 81.9559 125.461 80.6097 124.882C72.5676 121.436 65.8182 115.597 59.2259 109.858C55.2513 106.408 51.2088 102.877 46.445 100.605C40.0072 97.5594 32.6823 96.9553 25.8325 98.9054C29.3749 94.9079 34.1907 92.2584 39.4634 91.4061C36.0602 88.3064 31.3249 87.0065 26.7217 86.9244C22.1186 86.8423 19.5795 87.4065 15.0871 88.4135C16.5941 85.6495 20.583 83.1426 23.7327 83.2176C20.7388 83.1786 17.7496 82.9676 14.78 82.5855C10.7161 81.9284 8.89479 77.1467 8.29484 73.0792C6.61642 61.8731 8.31627 49.942 14.4336 40.4179C15.6433 38.5189 17.0433 36.748 18.6118 35.1327C23.497 32.9543 28.7787 31.4937 33.5747 30.301C42.2532 28.1575 51.4072 29.1019 59.4652 32.9721C65.1076 35.6505 69.1072 40.3 73.8675 44.214C74.371 44.6282 74.8745 45.0425 75.3852 45.4532C80.1775 49.3098 85.215 52.8515 90.466 56.0558C98.4438 60.9232 106.607 65.512 111.707 73.6827C119.835 86.703 112.975 100.88 104.054 111.479Z" fill="black"/>
<path d="M108.546 111.154C110.962 113.163 113.49 115.032 116.117 116.754C121.238 117.111 118.942 123.292 118.942 123.292L114.557 126.114C114.557 126.114 107.047 120.146 102.929 118.214C98.8117 116.282 108.546 111.154 108.546 111.154Z" fill="white"/>
<path opacity="0.3" d="M72.1355 45.9567C72.1355 45.9567 71.4213 39.0073 70.3142 37.0539L53.2908 33.5792V32.2615C53.2908 32.2615 53.6836 29.9688 49.8911 28.5332C46.0986 27.0977 38.1957 28.9618 36.1566 30.5045C34.1175 32.0472 34.8639 34.7041 34.8639 34.7041C34.8639 34.7041 28.0145 38.1645 24.9362 39.4822C22.417 40.6476 19.9614 41.9457 17.5797 43.3712C17.5797 43.3712 16.187 59.3483 16.462 63.0587C16.7369 66.7691 16.237 70.2616 16.5548 72.315C16.8727 74.3684 17.1262 75.529 19.2796 77.2895C21.433 79.0501 23.3935 81.5963 29.043 79.0751L28.2538 78.4501L65.4432 65.9227L72.1355 45.9567Z" fill="black"/>
<path d="M72.1355 45.9567C72.1355 45.9567 71.4213 39.0073 70.3142 37.0539L53.2908 33.5792V32.2615C53.2908 32.2615 53.6836 29.9688 49.8911 28.5332C46.0986 27.0977 38.1957 28.9618 36.1566 30.5045C34.1175 32.0472 34.8639 34.7041 34.8639 34.7041C34.8639 34.7041 28.0145 38.1645 24.9362 39.4822C22.417 40.6476 19.9614 41.9457 17.5797 43.3712C17.5797 43.3712 16.187 59.3483 16.462 63.0587C16.7369 66.7691 16.237 70.2616 16.5548 72.315C16.8727 74.3684 17.1262 75.529 19.2796 77.2895C21.433 79.0501 23.3935 81.5963 29.043 79.0751L28.2538 78.4501L65.4432 65.9227L72.1355 45.9567Z" fill="#00CD7E"/>
<path opacity="0.05" d="M72.1355 45.9567C72.1355 45.9567 71.4213 39.0073 70.3142 37.0539L53.2908 33.5792V32.2615C53.2908 32.2615 53.6836 29.9688 49.8911 28.5332C46.0986 27.0977 38.1957 28.9618 36.1566 30.5045C34.1175 32.0472 34.8639 34.7041 34.8639 34.7041C34.8639 34.7041 28.0145 38.1645 24.9362 39.4822C22.417 40.6476 19.9614 41.9457 17.5797 43.3712C17.5797 43.3712 16.187 59.3483 16.462 63.0587C16.7369 66.7691 16.237 70.2616 16.5548 72.315C16.8727 74.3684 17.1262 75.529 19.2796 77.2895C21.433 79.0501 23.3935 81.5963 29.043 79.0751L28.2538 78.4501L65.4432 65.9227L72.1355 45.9567Z" fill="black"/>
<path opacity="0.1" d="M70.5392 37.8967H63.4184C62.749 37.8979 62.1018 38.1365 61.5918 38.57C61.0817 39.0035 60.742 39.6039 60.633 40.2643L57.1226 61.3803C57.1226 61.3803 52.2944 61.7802 48.8733 64.2729C45.4522 66.7655 37.0351 48.9671 23.7363 48.96C23.7363 48.96 27.5645 57.7056 28.4109 64.6728C28.4109 64.6728 20.1009 63.7693 18.7225 67.0226C17.344 70.2759 19.3474 76.3718 22.8614 74.0113C26.3753 71.6508 29.6893 67.7118 32.0356 70.2009C34.3818 72.6899 44.8915 74.0327 44.8915 74.0327L61.0365 65.8941L67.3002 62.9515L70.5392 37.8967Z" fill="black"/>
<path opacity="0.4" d="M47.9341 27.4297C47.9341 27.4297 51.9766 28.5511 52.6301 29.9081C53.2836 31.2651 53.2158 34.7005 53.2158 34.7005C52.2355 36.9959 50.7499 39.0405 48.8697 40.6821L45.8522 34.7005L46.1236 41.4856C46.1236 41.4856 40.4098 40.5357 37.9707 38.7073L35.5459 36.8753C35.5459 36.8753 34.496 33.4292 34.6496 32.2615C34.8032 31.0937 39.1635 28.7225 39.1635 28.7225L47.9341 27.4297Z" fill="white"/>
<path d="M115.264 132.017C115.149 131.774 116.921 128.646 115.535 125.46C114.15 122.275 111.935 123.503 111.935 123.503C111.935 123.503 105.64 119.496 103.008 118.229C101.102 117.271 99.2665 116.179 97.5154 114.961L94.7156 118.729L97.3011 126.728L115.264 132.017Z" fill="#00CD7E"/>
<path d="M111.707 123.31L119.792 128.249C119.792 128.249 125.477 124.603 128.188 122.085C130.898 119.568 136.987 114.208 136.987 114.208L140.865 108.99C140.865 108.99 138.176 105.662 133.694 108.337C127.902 111.786 120.838 116.786 116.142 116.743C116.142 116.743 117.071 122.528 111.753 123.31" fill="#00CD7E"/>
<path d="M46.5664 6.54236C46.5664 6.54236 50.2339 12.0919 50.9017 13.8881C51.5695 15.6844 52.1087 18.3449 51.973 19.6233C51.8373 20.9018 50.4982 27.7583 49.8304 27.9583L49.1804 28.6939L49.6125 31.5972C49.6125 31.5972 46.7557 36.5575 38.3029 32.9221C38.3029 32.9221 37.9779 27.1298 36.9494 25.3121C35.9209 23.4944 34.3925 25.6692 32.8533 20.4018C31.3142 15.1344 36.2138 9.63137 36.2138 9.63137L46.5664 6.54236Z" fill="white"/>
<path opacity="0.5" d="M137.344 107.369C137.344 107.369 133.184 108.083 131.837 110.554C130.491 113.026 127.909 117.586 127.013 119.796C126.116 122.007 118.828 127.346 118.828 127.346L119.795 128.249C119.795 128.249 125.741 124.571 129.334 121.078C132.926 117.586 140.836 108.794 140.836 108.794C140.836 108.794 140.269 108.215 137.344 107.369Z" fill="white"/>
<path opacity="0.5" d="M95.7334 117.347L94.7156 118.729L97.876 125.289L115.274 131.542L116.078 128.992C116.078 128.992 116.346 126.407 110.239 124.442C104.133 122.478 100.412 121.182 98.676 119.832C96.9404 118.482 95.7334 117.347 95.7334 117.347Z" fill="white"/>
<path d="M38.2921 68.6367C38.2921 68.6367 32.9641 67.8332 30.4786 72.19C27.9931 76.5467 28.2466 78.4358 28.2466 78.4358C28.2466 78.4358 31.7677 81.632 36.6066 81.4498C41.4454 81.2677 48.5055 75.7182 50.791 73.9327C53.0765 72.1471 58.8796 66.9619 62.8328 68.0296L63.2899 64.2907C63.2899 64.2907 62.9042 62.6123 59.5259 63.0658C56.1477 63.5193 54.8192 65.4442 53.73 65.4442C52.6408 65.4442 51.6088 64.3978 49.4197 68.1368C49.3983 68.1296 41.7133 69.4938 38.2921 68.6367Z" fill="white"/>
<path d="M45.2272 14.5202C45.3409 15.2184 45.502 15.908 45.7093 16.5843C45.7877 16.9205 45.9375 17.236 46.1486 17.5092C46.5521 17.9413 47.2199 18.052 47.8055 18.1413C47.9052 18.1481 47.9995 18.1884 48.0734 18.2556C48.1229 18.3317 48.1455 18.4222 48.1377 18.5127C48.1347 19.1911 47.9309 19.8534 47.552 20.4161" stroke="#263238" stroke-linecap="round" stroke-linejoin="round"/>
<path opacity="0.1" d="M99.3045 112.876L95.7334 117.329C95.7334 117.329 99.6616 120.953 103.715 122.296C107.768 123.639 114.878 126.174 116.067 128.128L115.61 125.803C115.61 125.803 104.497 118.986 101.947 117.357C101.193 116.863 100.562 116.201 100.104 115.424C99.6458 114.647 99.3722 113.775 99.3045 112.876Z" fill="black"/>
<path opacity="0.1" d="M111.707 123.31L118.821 127.346C118.821 127.346 122.335 124.942 124.059 123.171C125.784 121.4 127.905 119.436 129.23 115.468C131.034 109.983 136.205 107.369 136.205 107.369C136.205 107.369 129.012 110.758 125.27 113.404C121.527 116.05 117.874 117.168 115.753 116.975C115.732 117 117.435 122.389 111.707 123.31Z" fill="black"/>
<path d="M42.7203 21.3803C42.7203 21.3803 45.5165 23.573 48.4341 22.7516C48.4198 22.7516 45.6807 28.1797 42.7203 21.3803Z" fill="white" stroke="#263238" stroke-linecap="round" stroke-linejoin="round"/>
<path d="M42.6167 16.6415C42.6953 17.245 42.5132 17.7664 42.2096 17.8092C41.9061 17.8521 41.5954 17.3771 41.5133 16.7879C41.4311 16.1987 41.6097 15.663 41.9168 15.6201C42.2239 15.5773 42.5489 16.038 42.6167 16.6415Z" fill="#263238"/>
<path d="M48.7055 15.5416C48.7805 16.1486 48.6019 16.67 48.2984 16.7093C47.9948 16.7486 47.677 16.2808 47.5842 15.6951C47.4913 15.1095 47.6806 14.5631 47.9877 14.5238C48.2948 14.4845 48.6233 14.938 48.7055 15.5416Z" fill="#263238"/>
<path d="M42.1846 14.081C42.1846 14.081 40.5562 13.2418 39.3956 15.0416" stroke="#263238" stroke-linecap="round" stroke-linejoin="round"/>
<path d="M46.3593 12.9596C46.3593 12.9596 48.0841 11.4848 49.0804 12.9596" stroke="#263238" stroke-linecap="round" stroke-linejoin="round"/>
<path d="M36.653 19.6269C36.653 19.6269 35.6031 18.0806 34.5103 18.127C33.4176 18.1734 32.9641 19.7269 33.3604 21.2267C33.7568 22.7266 35.4067 24.8193 36.6566 24.6228C37.3574 24.5292 37.9961 24.1716 38.4421 23.6229" stroke="#263238" stroke-linecap="round" stroke-linejoin="round"/>
<path d="M46.6914 7.7887C47.8663 8.76718 49.1126 9.83137 49.709 11.2705C50.2339 12.4954 50.3518 13.856 50.8339 15.0952C51.3445 16.4165 51.9052 17.8021 51.948 19.2448C51.9279 20.5865 51.753 21.9214 51.4267 23.223C51.2471 24.3466 50.9808 25.4545 50.6303 26.537C50.0482 28.0833 48.9769 29.0368 47.5377 29.7688C46.4878 30.3009 44.7451 31.0616 43.6095 30.3438C42.9524 29.9153 41.9597 28.6832 41.1383 27.5476" stroke="#263238" stroke-linecap="round" stroke-linejoin="round"/>
<path d="M36.653 24.6229C36.653 24.6229 38.5028 29.1653 38.0564 32.3579" stroke="#263238" stroke-linecap="round" stroke-linejoin="round"/>
<path d="M36.178 18.8662C36.4245 18.6834 36.6198 18.4402 36.7449 18.1599C36.87 17.8797 36.9207 17.572 36.8923 17.2664C36.8244 16.5522 36.3423 15.9201 36.4352 15.2237C36.509 14.8896 36.6292 14.5675 36.7923 14.2667C37.0435 13.687 37.154 13.0561 37.1149 12.4256C37.0758 11.795 36.8882 11.1826 36.5673 10.6384C36.5673 10.6384 42.456 10.9134 45.2129 9.15998C47.9698 7.40657 50.0732 2.92126 48.4055 0.778597C46.7378 -1.36407 43.4881 1.56067 41.0812 1.88207C38.6742 2.20347 30.1036 3.5712 28.7394 6.88162C27.3753 10.192 29.4536 11.3705 29.5179 14.5202C29.5822 17.6699 29.5822 23.6372 34.2925 23.0909C34.2925 23.0909 32.5319 20.8089 33.7533 18.4484C34.5996 17.4628 36.178 18.8662 36.178 18.8662Z" fill="#263238"/>
<path d="M47.7198 4.50323C48.5199 5.12532 49.1832 5.90547 49.6686 6.7951C50.1539 7.68474 50.4509 8.66478 50.541 9.67419C50.8017 12.0347 54.9906 16.6236 51.9695 19.2412C51.9695 19.2412 51.2552 16.4593 50.8553 15.0916C50.4553 13.7238 49.9089 11.2133 49.2161 10.3491C48.5233 9.48492 44.8415 6.47091 44.8415 6.47091L47.7198 4.50323Z" fill="#263238"/>
<path d="M37.1958 32.2579C37.1958 32.2579 40.0991 34.172 45.495 34.247L46.1271 41.482C46.1271 41.482 40.0563 41.0214 35.5495 36.8717C35.5495 36.8717 34.3282 33.6577 34.6532 32.2579C34.9781 30.858 37.8672 29.4938 37.8672 29.4938" stroke="#263238" stroke-linecap="round" stroke-linejoin="round"/>
<path d="M49.3983 29.0225L49.5697 31.6079C48.4318 32.791 47.0379 33.6975 45.495 34.2577L48.8733 40.6857C48.8733 40.6857 52.9015 37.5502 53.3015 34.2577C53.3015 34.2577 53.3372 30.883 52.6337 29.9188C51.9302 28.9546 49.3733 28.4904 49.3733 28.4904" stroke="#263238" stroke-linecap="round" stroke-linejoin="round"/>
<path opacity="0.8" d="M33.0497 9.02784C33.4783 7.95651 34.6603 7.303 35.8102 7.13159C36.9601 6.96017 38.1421 7.07802 39.3063 7.04945C40.9171 7.03525 42.4945 6.58879 43.8738 5.75671C45.2567 4.91361 46.2483 3.55594 46.6307 1.98206" stroke="white" stroke-linecap="round" stroke-linejoin="round"/>
<path opacity="0.8" d="M30.2679 8.81719C30.9821 6.60667 33.3604 5.24608 35.6816 5.0461C36.8315 4.94611 37.9957 5.07824 39.1278 4.94611C40.2598 4.81398 41.4704 4.33902 42.0668 3.35339" stroke="white" stroke-linecap="round" stroke-linejoin="round"/>
<path d="M29.0466 79.0608C23.4435 81.9641 21.4544 78.9715 18.3332 76.5003C15.2121 74.0291 17.2619 69.6045 16.6084 62.5158C15.9549 55.4272 17.5797 43.3711 17.5797 43.3711C17.5797 43.3711 18.976 43.0533 22.8507 40.6821C26.7253 38.3109 34.8746 34.7005 34.8746 34.7005" stroke="#263238" stroke-linecap="round" stroke-linejoin="round"/>
<path d="M34.596 68.3296C34.596 68.3296 33.7068 65.5156 31.1999 65.4406C28.693 65.3656 24.7362 66.512 21.915 71.8293" stroke="#263238" stroke-linecap="round" stroke-linejoin="round"/>
<path d="M30.6286 65.2728C30.4722 65.2643 30.3186 65.228 30.175 65.1656C28.1105 64.4242 25.8704 64.3222 23.747 64.8728" stroke="#263238" stroke-linecap="round" stroke-linejoin="round"/>
<path d="M22.2936 47.2173C26.8575 52.2597 29.0787 58.9305 31.1856 65.3942" stroke="#263238" stroke-linecap="round" stroke-linejoin="round"/>
<path d="M53.2908 33.5792C53.2908 33.5792 61.565 35.5504 65.6075 36.0218C69.65 36.4932 70.3035 37.0574 70.3035 37.0574L71.057 39.875" stroke="#263238" stroke-linecap="round" stroke-linejoin="round"/>
<path d="M91.8551 38.493L63.6791 39.5751L61.3758 68.5546H66.2039L90.6695 63.0765L93.7478 39.1858L91.8551 38.493Z" fill="white"/>
<path d="M62.8435 69.4116L93.6621 39.8715L90.6695 63.0765L62.8435 69.4116Z" fill="#00CD7E"/>
<path opacity="0.7" d="M62.8435 69.4116L93.6621 39.8715L90.6695 63.0765L62.8435 69.4116Z" fill="white"/>
<path d="M62.8435 68.6368L65.3076 40.6821L93.7478 39.1859L90.6696 63.0765L62.8435 68.6368Z" stroke="#263238" stroke-linecap="round" stroke-linejoin="round"/>
<path d="M81.7596 52.731C81.5704 54.4309 80.6597 55.7236 79.7312 55.62C78.8028 55.5165 78.2028 54.0488 78.3957 52.3453C78.5885 50.6419 79.4955 49.3528 80.4276 49.4563C81.3597 49.5599 81.9525 51.0276 81.7596 52.731Z" fill="#263238"/>
<path d="M90.6695 63.0765C90.6695 63.0765 103.693 62.7194 107.764 65.3942C111.835 68.0689 114.228 81.5677 113.664 88.7278C113.1 95.8878 108.186 112.326 108.186 112.326L98.7759 101.673C98.7759 101.673 94.1335 84.8174 96.669 78.2144C96.669 78.2144 84.1701 78.9287 79.2527 77.3752C79.2527 77.3752 74.8424 70.158 67.2859 67.769L90.6695 63.0765Z" fill="#263238"/>
<path d="M110.175 112.604C106.83 109.48 103.827 106.009 101.219 102.248C96.6654 95.2129 90.3696 88.4599 83.8916 83.189C78.6742 78.9572 77.4922 72.065 71.057 68.6046C60.3901 62.8908 51.1695 74.2505 47.7199 76.5503C44.2702 78.8501 38.2921 81.4713 38.2921 81.4713C38.2921 81.4713 40.4705 89.6598 46.8628 90.6276C53.2551 91.5954 59.7402 87.1815 62.8042 89.3134C65.8682 91.4454 68.1359 100.97 78.2528 106.551C86.5235 111.111 97.7903 115.557 103.608 118.557C104.9 119.229 105.865 119.936 106.597 120.343C108.643 121.428 110.786 122.718 112.803 123.996L119.778 128.242C119.778 128.242 126.781 124.103 129.47 120.286C129.827 119.771 130.573 118.407 131.273 117.072C132.791 114.19 134.719 111.604 137.387 110.179C139.229 109.183 140.872 108.887 140.833 108.783C140.658 108.455 137.312 106.744 135.041 107.68C130.234 109.665 120.62 117.297 116.082 116.729C113.972 115.567 111.992 114.185 110.175 112.604V112.604Z" stroke="#263238" stroke-miterlimit="10"/>
<path d="M110.175 112.604C105.982 114.286 104.293 116.915 103.643 118.572C97.8296 115.554 86.5592 111.126 78.2885 106.565C68.1716 100.966 65.9218 91.4597 62.8399 89.3313C59.7581 87.2029 53.2765 91.6311 46.8949 90.6454C40.5134 89.6598 38.2921 81.4677 38.2921 81.4677C38.2921 81.4677 44.263 78.8822 47.7127 76.5824C51.1624 74.2827 59.1081 62.9123 71.0428 68.6367C77.6314 71.7936 78.6599 78.9929 83.8773 83.2211C90.341 88.4742 96.6512 95.245 101.204 102.28C103.812 106.036 106.82 109.498 110.175 112.604Z" fill="#263238"/>
<path d="M78.667 76.0754C78.667 76.0754 75.453 69.5188 70.2642 68.2475" stroke="white" stroke-linecap="round" stroke-linejoin="round"/>
<path d="M61.7471 63.0159C58.176 62.2409 54.28 66.1763 52.6337 65.4371C51.4088 64.8907 49.3983 68.1297 49.3983 68.1297C46.0882 68.6084 42.7407 68.7782 39.3992 68.6368C34.6032 68.3297 32.332 69.2653 30.6357 71.8293L28.2645 78.1073C28.2645 78.1073 34.5175 83.7104 41.1919 80.4464C47.8663 77.1824 56.7333 67.344 62.8435 67.3762" stroke="#263238" stroke-linecap="round" stroke-linejoin="round"/>
<path d="M111.436 123.142C111.436 123.142 117.278 123.621 115.91 116.64" stroke="#263238" stroke-miterlimit="10"/>
<path d="M138.972 112.326C138.54 113.186 133.184 117.747 128.57 121.732C128.57 121.671 129.862 119.232 130.398 118.2C131.623 115.907 134.798 109.629 140.833 108.794C141.69 109.308 138.972 112.326 138.972 112.326Z" fill="#263238"/>
<path d="M136.676 107.419C130.569 108.633 129.177 116.468 127.013 119.796C124.849 123.125 118.828 127.653 118.828 127.653" stroke="#263238" stroke-miterlimit="10"/>
<path d="M115.535 125.657C116.531 127.478 116.06 129.585 115.535 130.91C115.277 131.567 114.957 132.199 114.578 132.795C105.932 131.367 97.2904 126.724 97.2904 126.724L95.0727 119.832L94.7156 118.729L98.0724 114.208" stroke="#263238" stroke-miterlimit="10"/>
<path d="M115.535 130.91C115.277 131.567 114.957 132.199 114.578 132.795C105.932 131.367 97.2904 126.724 97.2904 126.724L95.0727 119.832C96.1869 121.289 98.2581 123.421 101.358 124.296C105.557 125.489 113.328 126.885 115.535 130.91Z" fill="#263238"/>
<path d="M61.3758 67.544L63.6791 39.5751L91.8551 38.493L93.7478 39.1858" stroke="#263238" stroke-linecap="round" stroke-linejoin="round"/>
<path d="M115.871 119.796C115.871 119.796 119.724 120.486 122.684 118.075C125.645 115.665 130.427 110.201 130.427 110.201" stroke="#263238" stroke-miterlimit="10"/>
<path d="M119.792 116.325C119.792 116.325 118.86 117.725 119.792 120.536" stroke="#263238" stroke-linecap="round" stroke-linejoin="round"/>
<path d="M122.524 115C122.1 116.398 122.228 117.904 122.881 119.211" stroke="#263238" stroke-linecap="round" stroke-linejoin="round"/>
<path d="M125.784 113.097C125.784 113.097 125.006 115.436 125.784 117.5" stroke="#263238" stroke-linecap="round" stroke-linejoin="round"/>
<path d="M98.8224 113.625L95.7334 117.347C95.7334 117.347 98.8438 120.746 103.233 122.16C107.622 123.575 115.467 125.971 116.117 128.528" stroke="#263238" stroke-miterlimit="10"/>
</svg>
